#!OML:ASF Y:\EmotionMaleHayes\Project 1\Capture day 1\Session 1\Male1.ASF
:FULLY-SPECIFIED
:DEGREES
1439
root 47.385 16.5517 -4.04166 185.372 -2.01231 192.336
lowerback 14.3864 4.97895 4.35424
upperback 6.66777 6.11969 4.36905
thorax -0.981615 2.58448 1.23087
lowerneck -23.4719 9.09343 10.4606
upperneck 31.7482 12.4178 -12.306
head 17.137 4.22897 -4.65733
rclavicle 5.33737e-014 2.28602e-014
rhumerus -23.4118 15.9404 -89.149
rradius 88.0541
rwrist -13.9046
rhand -21.83 -31.483
rfingers 7.12502
rthumb 4.57289 -61.4137
lclavicle 5.33737e-014 2.28602e-014
lhumerus -76.5242 -14.51 108.561
lradius 64.7635
lwrist 20.0249
lhand -27.5262 -18.791
lfingers 7.12502
lthumb -0.928296 11.1868
rfemur 10.0933 -11.3497 24.7553
rtibia 4.69886
rfoot -20.4558 5.47848
rtoes 0.699001
lfemur -24.2198 13.9652 -8.66885
ltibia 62.0267
lfoot -14.601 6.17153
ltoes 7.84398
1440
root 47.3695 16.5242 -4.20117 185.808 -1.57687 192.234
lowerback 14.1465 5.34414 3.53513
upperback 6.63542 6.53065 4.1377
thorax -0.960335 2.79897 1.39513
lowerneck -23.4014 9.16906 10.6197
upperneck 31.6075 12.478 -12.3101
head 17.0717 4.28803 -4.66116
rclavicle 4.25399e-014 2.46493e-014
rhumerus -24.0619 17.5294 -89.9196
rradius 89.5771
rwrist -12.0354
rhand -21.3519 -29.7456
rfingers 7.12502
rthumb 5.03453 -59.6658
lclavicle 4.25399e-014 2.46493e-014
lhumerus -78.7508 -14.6651 110.332
lradius 65.3303
lwrist 21.322
lhand -28.5182 -18.6548
lfingers 7.12502
lthumb -1.88643 11.3166
rfemur 10.2716 -10.9554 24.5584
rtibia 4.65733
rfoot -20.6905 5.69899
rtoes -0.00993242
lfemur -24.2198 13.9652 -8.66885
ltibia 62.0267
lfoot -14.601 6.17153
ltoes 7.84398
1441
root 47.3554 16.5003 -4.3634 185.919 -1.40445 192.392
lowerback 14.1138 5.73553 3.40896
upperback 6.70376 7.0395 3.66731
thorax -0.828956 3.06981 0.91251
lowerneck -23.433 9.09365 11.2619
upperneck 31.3891 12.0962 -12.246
head 16.9486 4.25036 -4.81159
rclavicle 2.79603e-014 6.80837e-015
rhumerus -24.4754 18.5743 -90.4224
rradius 91.1378
rwrist -10.5987
rhand -21.7148 -28.4759
rfingers 7.12502
rthumb 4.68414 -58.4041
lclavicle 2.79603e-014 6.80837e-015
lhumerus -80.8698 -15.4945 111.594
lradius 65.8835
lwrist 23.341
lhand -30.175 -18.9818
lfingers 7.12502
lthumb -3.4865 10.9694
rfemur 10.7303 -10.6884 24.6622
rtibia 4.73972
rfoot -21.1413 5.65598
rtoes -1.93633
lfemur -24.2198 13.9652 -8.66885
ltibia 62.0267
lfoot -14.601 6.17153
ltoes 7.84398
1442
root 47.343 16.4701 -4.52531 185.689 -0.95855 193.085
lowerback 14.6367 6.22326 3.61062
upperback 6.67017 7.72457 3.36447
thorax -1.06567 3.41099 0.344776
lowerneck -23.371 9.00033 12.0022
upperneck 31.2614 11.6628 -12.2316
head 16.8531 4.18965 -5.0237
rclavicle 1.30204e-014 -1.799e-014
rhumerus -25.1397 19.7186 -90.6748
rradius 92.6714
rwrist -9.5241
rhand -22.5637 -27.4311
rfingers 7.12502
rthumb 3.86447 -57.3758
lclavicle 1.30204e-014 -1.799e-014
lhumerus -82.8921 -15.8609 112.521
lradius 66.2473
lwrist 25.468
lhand -30.2722 -19.8234
lfingers 7.12502
lthumb -3.58035 10.1263
rfemur 11.4265 -9.87623 25.434
rtibia 4.93471
rfoot -21.6529 5.35696
rtoes -4.42318
lfemur -24.2198 13.9652 -8.66885
ltibia 62.0267
lfoot -14.601 6.17153
ltoes 7.84398
1443
root 47.3339 16.4365 -4.68306 185.792 -0.45952 193.471
lowerback 14.6215 5.1535 2.92244
upperback 6.78612 8.49164 2.94697
thorax -1.01041 4.74342 0.152821
lowerneck -23.3951 9.1347 12.542
upperneck 30.97 11.7064 -12.3794
head 16.7796 4.27432 -5.15108
rclavicle 5.52621e-014 7.33515e-014
rhumerus -25.5813 21.3 -91.1901
rradius 93.9033
rwrist -7.8477
rhand -23.2914 -26.4386
rfingers 7.12502
rthumb 3.16174 -56.3949
lclavicle 5.52621e-014 7.33515e-014
lhumerus -84.3391 -15.5029 113.257
lradius 66.5785
lwrist 27.1735
lhand -30.609 -19.623
lfingers 7.12502
lthumb -3.90552 10.321
rfemur 11.7436 -8.76022 26.041
rtibia 5.18389
rfoot -21.8922 5.26664
rtoes -3.75807
lfemur -24.2198 13.9652 -8.66885
ltibia 62.0267
lfoot -14.601 6.17153
ltoes 7.84398
